<?xml version="1.0" standalone="no"?>
<!DOCTYPE svg PUBLIC "-//W3C//DTD SVG 20010904//EN"
 "http://www.w3.org/TR/2001/REC-SVG-20010904/DTD/svg10.dtd">
<svg version="1.0" xmlns="http://www.w3.org/2000/svg"
 width="121.000000pt" height="121.000000pt" viewBox="0 0 121.000000 121.000000"
 preserveAspectRatio="xMidYMid meet">
<metadata>
Created by potrace 1.11, written by Peter Selinger 2001-2013
</metadata>
<g transform="translate(0.000000,121.000000) scale(0.100000,-0.100000)"
fill="#000000" stroke="none">
<path d="M483 1000 c-141 -29 -242 -119 -243 -215 0 -132 94 -212 340 -288
152 -48 199 -88 177 -152 -10 -29 -60 -54 -123 -61 -30 -4 -54 -11 -54 -17 0
-6 -9 -2 -20 8 -15 14 -20 15 -20 4 0 -11 -2 -12 -9 -1 -4 8 -11 13 -15 12 -3
0 -23 2 -44 7 -20 4 -39 8 -42 8 -3 1 -27 11 -53 23 -26 13 -51 21 -55 18 -14
-8 -73 -96 -65 -96 4 0 3 -4 -4 -8 -7 -5 10 -19 47 -39 35 -19 62 -27 66 -22
3 6 11 3 18 -7 10 -13 15 -14 21 -4 6 9 9 9 15 0 5 -8 9 -7 13 4 5 11 1 16
-13 16 -10 0 -22 5 -26 12 -4 7 -3 8 4 4 7 -4 12 -1 12 7 0 8 -7 17 -15 21 -8
3 -15 1 -15 -4 0 -5 -7 -15 -15 -24 -14 -13 -20 -13 -55 6 -22 12 -40 26 -40
31 0 6 9 2 20 -8 11 -10 20 -14 20 -10 0 5 5 4 12 -3 16 -16 31 -15 22 1 -4 6
-4 9 1 5 4 -4 19 2 33 12 17 14 29 17 37 10 6 -5 15 -6 20 -2 4 4 2 -3 -4 -15
-10 -19 -9 -23 4 -23 11 0 15 -8 13 -27 -3 -22 1 -27 23 -28 14 -1 32 -5 40
-9 8 -4 5 -1 -5 8 -10 8 -22 13 -27 11 -10 -7 -30 72 -21 88 8 16 32 -16 32
-43 0 -14 3 -29 6 -33 8 -8 34 3 34 15 0 6 -7 8 -15 4 -8 -3 -15 -1 -15 4 0 6
8 10 19 10 13 0 20 -9 25 -30 4 -21 11 -30 25 -30 11 0 22 -6 24 -12 3 -7 3 8
0 35 -4 40 -3 46 11 41 12 -5 13 -10 5 -26 -8 -15 -8 -19 0 -13 8 5 10 -2 6
-22 -5 -26 -5 -27 6 -6 12 22 32 32 26 14 -1 -5 1 -9 6 -10 23 -3 37 0 37 9 0
6 -6 10 -12 9 -23 -4 -63 17 -49 25 9 6 9 11 1 21 -9 11 -7 14 8 12 12 0 18
-6 15 -14 -3 -7 0 -13 7 -13 6 0 8 -5 4 -11 -5 -8 1 -10 20 -7 14 3 29 2 32
-3 2 -4 12 -5 22 -2 13 4 13 2 -3 -10 -30 -24 -8 -20 34 5 19 12 42 23 51 25
19 2 79 70 92 103 14 38 12 114 -6 148 -9 17 -33 47 -53 67 -48 46 -165 105
-198 99 -14 -2 -25 -1 -25 3 0 10 -37 26 -114 50 -67 20 -126 68 -126 102 0
31 43 67 95 80 94 24 214 7 315 -44 l50 -25 36 56 c19 30 33 62 30 70 -8 22
-121 70 -201 87 -81 16 -172 19 -232 7z m20 -137 c-7 -2 -19 -2 -25 0 -7 3 -2
5 12 5 14 0 19 -2 13 -5z m-56 -189 c-3 -3 -12 -4 -19 -1 -8 3 -5 6 6 6 11 1
17 -2 13 -5z m170 -70 c-3 -3 -12 -4 -19 -1 -8 3 -5 6 6 6 11 1 17 -2 13 -5z
m-60 -10 c-3 -3 -12 -4 -19 -1 -8 3 -5 6 6 6 11 1 17 -2 13 -5z m-50 -10 c-3
-3 -12 -4 -19 -1 -8 3 -5 6 6 6 11 1 17 -2 13 -5z m-152 -334 c-3 -5 -12 -10
-18 -10 -7 0 -6 4 3 10 19 12 23 12 15 0z m335 -30 c0 -5 -4 -10 -10 -10 -5 0
-10 5 -10 10 0 6 5 10 10 10 6 0 10 -4 10 -10z m-117 -26 c-7 -3 -9 -13 -6
-22 5 -13 3 -14 -7 -5 -14 13 -5 33 13 32 9 0 9 -2 0 -5z"/>
</g>
</svg>
